HIERARCHY
ROOT root
{
	OFFSET 0.000000 0.000000 0.000000
	CHANNELS 6 Xposition Yposition Zposition Zrotation Yrotation Xrotation
	JOINT lhip
	{
		OFFSET 0.058581 -0.082280 -0.017664
		CHANNELS 3 Zrotation Yrotation Xrotation
		JOINT lknee
		{
			OFFSET 0.043451 -0.386469 0.008037
			CHANNELS 3 Zrotation Yrotation Xrotation
			JOINT lankle
			{
				OFFSET -0.014790 -0.426874 -0.037428
				CHANNELS 3 Zrotation Yrotation Xrotation
				JOINT ltoe
				{
					OFFSET 0.041054 -0.060286 0.122042
					CHANNELS 3 Zrotation Yrotation Xrotation
					End Site
					{
						OFFSET 0.000000 0.000000 0.000000
					}
				}
			}
		}
	}
	JOINT rhip
	{
		OFFSET -0.060310 -0.090513 -0.013543
		CHANNELS 3 Zrotation Yrotation Xrotation
		JOINT rknee
		{
			OFFSET -0.043257 -0.383688 -0.004843
			CHANNELS 3 Zrotation Yrotation Xrotation
			JOINT rankle
			{
				OFFSET 0.019056 -0.420046 -0.034562
				CHANNELS 3 Zrotation Yrotation Xrotation
				JOINT rtoe
				{
					OFFSET -0.034840 -0.062106 0.130323
					CHANNELS 3 Zrotation Yrotation Xrotation
					End Site
					{
						OFFSET 0.000000 0.000000 0.000000
					}
				}
			}
		}
	}
	JOINT lowerback
	{
		OFFSET 0.004439 0.124404 -0.038385
		CHANNELS 3 Zrotation Yrotation Xrotation
		JOINT upperback
		{
			OFFSET 0.004488 0.137956 0.026820
			CHANNELS 3 Zrotation Yrotation Xrotation
			JOINT chest
			{
				OFFSET -0.002265 0.056032 0.002855
				CHANNELS 3 Zrotation Yrotation Xrotation
				JOINT lowerneck
				{
					OFFSET -0.013390 0.211636 -0.033468
					CHANNELS 3 Zrotation Yrotation Xrotation
					JOINT upperneck
					{
						OFFSET 0.010113 0.088937 0.050410
						CHANNELS 3 Zrotation Yrotation Xrotation
						End Site
						{
							OFFSET 0.000000 0.000000 0.000000
						}
					}
				}
				JOINT lclavicle
				{
					OFFSET 0.071702 0.114000 -0.018898
					CHANNELS 3 Zrotation Yrotation Xrotation
					JOINT lshoulder
					{
						OFFSET 0.122921 0.045205 -0.019046
						CHANNELS 3 Zrotation Yrotation Xrotation
						JOINT lelbow
						{
							OFFSET 0.255332 -0.015649 -0.022946
							CHANNELS 3 Zrotation Yrotation Xrotation
							JOINT lwrist
							{
								OFFSET 0.265709 0.012698 -0.007375
								CHANNELS 3 Zrotation Yrotation Xrotation
								End Site
								{
									OFFSET 0.000000 0.000000 0.000000
								}
							}
						}
					}
				}
				JOINT rclavicle
				{
					OFFSET -0.082954 0.112472 -0.023707
					CHANNELS 3 Zrotation Yrotation Xrotation
					JOINT rshoulder
					{
						OFFSET -0.113228 0.046853 -0.008472
						CHANNELS 3 Zrotation Yrotation Xrotation
						JOINT relbow
						{
							OFFSET -0.260127 -0.014369 -0.031269
							CHANNELS 3 Zrotation Yrotation Xrotation
							JOINT rwrist
							{
								OFFSET -0.269108 0.006794 -0.006027
								CHANNELS 3 Zrotation Yrotation Xrotation
								End Site
								{
									OFFSET 0.000000 0.000000 0.000000
								}
							}
						}
					}
				}
			}
		}
	}
}
MOTION
Frames: 7
Frame Time: 0.033333
2.142138 -0.593359 0.970904 -77.052902 4.089613 88.359235 6.259531 3.078395 10.150936 -3.568654 -13.204472 8.939528 1.318949 6.775121 -24.205542 0.000000 -0.000000 0.000000 -1.744929 -1.208126 -17.290286 2.869474 -4.583516 5.303935 4.638380 -5.283109 6.366099 0.000000 -0.000000 0.000000 0.142707 -1.222623 7.230631 2.092220 -3.279429 5.809150 1.590192 -3.054894 1.228893 1.147210 -1.080485 -3.753095 5.135801 -1.084919 -11.721606 -22.987176 -6.822112 8.057614 -60.066307 -9.915925 11.108774 10.662779 -26.755349 11.364543 2.558109 -6.182452 -4.948173 20.211260 2.101137 3.631113 63.184217 -0.755330 10.045713 -19.287257 32.407234 -0.293898 3.685625 4.525759 -8.034957 
2.142657 -0.593897 0.970850 -77.134829 4.183853 88.217317 6.143479 2.749624 10.135873 -3.515719 -13.174949 9.182863 1.879144 7.515392 -24.455043 0.000000 -0.000000 0.000000 -1.714472 -1.273268 -17.271773 2.916227 -4.397908 5.475912 4.654191 -5.128540 6.837139 0.000000 -0.000000 0.000000 0.233512 -1.124593 7.402291 2.061940 -3.424121 5.720260 1.572006 -3.190101 1.302659 1.268049 -1.137703 -3.778503 5.080198 -1.325790 -11.947928 -22.862090 -6.674438 8.017769 -60.035064 -9.435398 10.813697 10.951883 -25.594252 11.234145 2.203396 -5.699355 -5.114011 20.157836 2.208356 3.759789 63.418331 -0.681002 10.083068 -19.335192 31.805379 -0.280775 3.593174 4.397766 -8.338193 
2.143331 -0.594892 0.970695 -77.215737 4.162422 88.143067 5.796071 2.644827 10.022888 -3.315024 -13.280025 9.477738 2.721649 8.353615 -24.844119 0.000000 -0.000000 0.000000 -1.911667 -1.268115 -17.326264 2.976808 -4.170229 5.655251 4.848917 -5.121797 7.384837 0.000000 -0.000000 0.000000 0.346156 -1.164898 7.527961 1.968304 -3.406053 5.668526 1.478066 -3.198697 1.280262 1.304580 -1.581964 -3.785347 5.158442 -1.366990 -12.306718 -22.917831 -6.559585 8.161637 -59.853461 -9.095140 10.535603 11.264136 -24.651780 10.984104 2.104889 -5.633030 -5.013713 20.147124 2.242649 3.744497 63.474031 -0.786140 10.060145 -19.215481 31.463248 -0.318882 3.743021 4.250543 -8.340108 
2.143261 -0.595797 0.970344 -77.448304 4.183503 87.666852 5.672915 2.398991 10.651930 -3.385695 -13.333428 9.450470 3.338414 9.322969 -25.016328 0.000000 -0.000000 0.000000 -2.188448 -1.235284 -16.892286 3.022725 -3.548196 5.962768 5.450313 -4.722432 8.524710 0.000000 -0.000000 0.000000 0.505954 -1.109826 8.028938 1.780872 -3.295525 5.722999 1.405953 -3.108583 1.205797 1.399938 -1.931519 -4.158475 5.303073 -1.479905 -12.502194 -23.030198 -6.077168 8.229404 -59.319749 -8.528568 9.905557 11.294209 -24.654514 10.814249 1.490171 -5.541876 -4.504505 20.255474 2.317012 3.633730 63.452550 -0.914822 9.760978 -19.095926 30.871487 -0.414023 4.574355 4.177030 -8.313029 
2.143554 -0.596164 0.970004 -77.561492 4.036174 87.672615 5.436848 2.339546 10.686360 -3.405488 -13.275513 9.446089 3.292271 9.550536 -24.995438 0.000000 -0.000000 0.000000 -2.393641 -1.310839 -16.990427 3.036387 -3.397597 6.036332 5.617975 -4.801306 8.665140 0.000000 -0.000000 0.000000 0.388168 -1.059172 8.033382 1.739683 -3.220372 5.620628 1.366712 -3.093377 1.305378 1.511790 -1.993266 -4.431017 5.265598 -1.534333 -12.369303 -23.070146 -5.828386 8.201491 -59.097692 -8.436920 9.790560 11.186550 -24.772477 10.756011 1.404930 -5.562646 -4.345023 20.315969 2.233775 3.588364 63.428932 -0.881652 9.814848 -19.125166 30.694150 -0.603739 4.801737 4.137833 -8.348578 
2.144017 -0.596518 0.969760 -77.600803 3.956259 87.690036 5.540414 2.793058 10.692192 -3.613759 -13.397701 9.399175 3.373393 9.234421 -25.031399 0.000000 -0.000000 0.000000 -2.563199 -1.442375 -17.174000 3.072722 -3.303748 6.341115 5.762239 -4.661760 8.655530 0.000000 -0.000000 0.000000 0.282881 -1.146085 7.957256 1.713374 -3.125771 5.685812 1.294378 -2.996882 1.251996 1.639002 -2.011077 -4.321402 5.347689 -1.473867 -12.541189 -23.251810 -5.505625 8.154709 -58.578215 -8.194967 9.531662 10.896856 -25.002332 10.616528 1.625056 -5.505189 -4.009124 20.493650 2.228202 3.651009 63.299868 -0.866312 9.793549 -19.079689 30.546494 -0.882558 4.916262 4.056031 -8.284633 
2.144059 -0.596708 0.969605 -77.532902 4.102718 87.439212 5.751262 2.713093 10.916526 -3.711880 -13.414681 9.525785 3.309466 9.168576 -25.207533 0.000000 -0.000000 0.000000 -2.512887 -1.374790 -16.898089 3.106013 -3.513950 6.426332 5.842656 -4.585721 8.560640 0.000000 -0.000000 0.000000 0.442863 -1.244704 8.233516 1.704411 -3.142302 5.639641 1.228074 -2.977355 1.216386 1.731644 -1.977876 -4.309505 5.346563 -1.525501 -12.378021 -23.318957 -5.239555 8.087226 -58.329875 -7.859087 9.414273 10.873463 -25.459277 10.524563 1.585794 -5.743398 -3.769566 20.497408 2.180906 3.574826 63.295140 -0.883568 9.803722 -19.020668 30.606095 -0.941962 4.920912 4.121154 -8.339999 
